<mxfile host="app.diagrams.net" modified="2023-09-03T04:24:02.134Z" agent="Mozilla/5.0 (Windows NT 10.0; Win64; x64) AppleWebKit/537.36 (KHTML, like Gecko) Chrome/116.0.0.0 Safari/537.36" version="21.7.2" etag="W-NQIi0XevQ0UoLTp07M" type="github">
  <diagram name="第 1 页" id="OydYJhTZIjCihHh7CYBI">
    <mxGraphModel>
      <root>
        <mxCell id="0" />
        <mxCell id="1" parent="0" />
      </root>
    </mxGraphModel>
  </diagram>
</mxfile>
